<svg xmlns="http://www.w3.org/2000/svg" version="1.1" xmlns:xlink="http://www.w3.org/1999/xlink" xmlns:svgjs="http://svgjs.dev/svgjs" width="1440" height="560" preserveAspectRatio="none" viewBox="0 0 1440 560"><g mask="url(&quot;#SvgjsMask1596&quot;)" fill="none"><rect width="1440" height="560" x="0" y="0" fill="url(&quot;#SvgjsLinearGradient1597&quot;)"></rect><path d="M-79.06 340.52L-79.06 340.52" stroke="#132e65" stroke-width="1.5"></path><path d="M-79.06 340.52L66.72 395.61" stroke="#132e65" stroke-width="1.5"></path><path d="M-79.06 340.52L-88.97 533.03" stroke="#132e65" stroke-width="1.5"></path><path d="M-88.97 533.03L-88.97 533.03" stroke="#132e65" stroke-width="1.5"></path><path d="M-88.97 533.03L42.68 554.16" stroke="#132e65" stroke-width="1.5"></path><path d="M-88.97 533.03L-54.57 675.59" stroke="#132e65" stroke-width="1.5"></path><path d="M-54.57 675.59L-54.57 675.59" stroke="#132e65" stroke-width="1.5"></path><path d="M-54.57 675.59L91.92 676.67" stroke="#132e65" stroke-width="1.5"></path><path d="M66.72 395.61L66.72 395.61" stroke="#132e65" stroke-width="1.5"></path><path d="M66.72 395.61L42.68 554.16" stroke="#132e65" stroke-width="1.5"></path><path d="M42.68 554.16L42.68 554.16" stroke="#132e65" stroke-width="1.5"></path><path d="M42.68 554.16L91.92 676.67" stroke="#132e65" stroke-width="1.5"></path><path d="M91.92 676.67L91.92 676.67" stroke="#132e65" stroke-width="1.5"></path><path d="M91.92 676.67L231.15 695.46" stroke="#132e65" stroke-width="1.5"></path><path d="M91.92 676.67L227.54 514.22" stroke="#132e65" stroke-width="1.5"></path><path d="M236.85 345.09L236.85 345.09" stroke="#132e65" stroke-width="1.5"></path><path d="M236.85 345.09L349.3 373.19" stroke="#132e65" stroke-width="1.5"></path><path d="M236.85 345.09L227.54 514.22" stroke="#132e65" stroke-width="1.5"></path><path d="M236.85 345.09L66.72 395.61" stroke="#132e65" stroke-width="1.5"></path><path d="M236.85 345.09L401.1 490.73" stroke="#132e65" stroke-width="1.5"></path><path d="M236.85 345.09L42.68 554.16" stroke="#132e65" stroke-width="1.5"></path><path d="M227.54 514.22L227.54 514.22" stroke="#132e65" stroke-width="1.5"></path><path d="M227.54 514.22L401.1 490.73" stroke="#132e65" stroke-width="1.5"></path><path d="M227.54 514.22L231.15 695.46" stroke="#132e65" stroke-width="1.5"></path><path d="M227.54 514.22L349.3 373.19" stroke="#132e65" stroke-width="1.5"></path><path d="M227.54 514.22L42.68 554.16" stroke="#132e65" stroke-width="1.5"></path><path d="M227.54 514.22L66.72 395.61" stroke="#132e65" stroke-width="1.5"></path><path d="M231.15 695.46L231.15 695.46" stroke="#132e65" stroke-width="1.5"></path><path d="M231.15 695.46L358.05 696.64" stroke="#132e65" stroke-width="1.5"></path><path d="M349.3 373.19L349.3 373.19" stroke="#132e65" stroke-width="1.5"></path><path d="M349.3 373.19L401.1 490.73" stroke="#132e65" stroke-width="1.5"></path><path d="M401.1 490.73L401.1 490.73" stroke="#132e65" stroke-width="1.5"></path><path d="M401.1 490.73L558.01 534.5" stroke="#132e65" stroke-width="1.5"></path><path d="M358.05 696.64L358.05 696.64" stroke="#132e65" stroke-width="1.5"></path><path d="M358.05 696.64L493.6 643.28" stroke="#132e65" stroke-width="1.5"></path><path d="M358.05 696.64L401.1 490.73" stroke="#132e65" stroke-width="1.5"></path><path d="M358.05 696.64L227.54 514.22" stroke="#132e65" stroke-width="1.5"></path><path d="M526.91 355.94L526.91 355.94" stroke="#132e65" stroke-width="1.5"></path><path d="M526.91 355.94L654.95 343.43" stroke="#132e65" stroke-width="1.5"></path><path d="M526.91 355.94L349.3 373.19" stroke="#132e65" stroke-width="1.5"></path><path d="M526.91 355.94L558.01 534.5" stroke="#132e65" stroke-width="1.5"></path><path d="M526.91 355.94L401.1 490.73" stroke="#132e65" stroke-width="1.5"></path><path d="M526.91 355.94L686.32 514.52" stroke="#132e65" stroke-width="1.5"></path><path d="M526.91 355.94L493.6 643.28" stroke="#132e65" stroke-width="1.5"></path><path d="M558.01 534.5L558.01 534.5" stroke="#132e65" stroke-width="1.5"></path><path d="M558.01 534.5L493.6 643.28" stroke="#132e65" stroke-width="1.5"></path><path d="M558.01 534.5L686.32 514.52" stroke="#132e65" stroke-width="1.5"></path><path d="M493.6 643.28L493.6 643.28" stroke="#132e65" stroke-width="1.5"></path><path d="M654.95 343.43L654.95 343.43" stroke="#132e65" stroke-width="1.5"></path><path d="M654.95 343.43L686.32 514.52" stroke="#132e65" stroke-width="1.5"></path><path d="M654.95 343.43L793.04 499.77" stroke="#132e65" stroke-width="1.5"></path><path d="M654.95 343.43L558.01 534.5" stroke="#132e65" stroke-width="1.5"></path><path d="M654.95 343.43L852.31 258.03" stroke="#132e65" stroke-width="1.5"></path><path d="M686.32 514.52L686.32 514.52" stroke="#132e65" stroke-width="1.5"></path><path d="M686.32 514.52L793.04 499.77" stroke="#132e65" stroke-width="1.5"></path><path d="M686.32 514.52L667.99 708.52" stroke="#132e65" stroke-width="1.5"></path><path d="M686.32 514.52L861.13 648.53" stroke="#132e65" stroke-width="1.5"></path><path d="M667.99 708.52L667.99 708.52" stroke="#132e65" stroke-width="1.5"></path><path d="M667.99 708.52L493.6 643.28" stroke="#132e65" stroke-width="1.5"></path><path d="M667.99 708.52L861.13 648.53" stroke="#132e65" stroke-width="1.5"></path><path d="M667.99 708.52L558.01 534.5" stroke="#132e65" stroke-width="1.5"></path><path d="M667.99 708.52L793.04 499.77" stroke="#132e65" stroke-width="1.5"></path><path d="M667.99 708.52L358.05 696.64" stroke="#132e65" stroke-width="1.5"></path><path d="M852.31 258.03L852.31 258.03" stroke="#132e65" stroke-width="1.5"></path><path d="M852.31 258.03L974.69 207.68" stroke="#132e65" stroke-width="1.5"></path><path d="M852.31 258.03L975.12 361.47" stroke="#132e65" stroke-width="1.5"></path><path d="M852.31 258.03L969.8 107.1" stroke="#132e65" stroke-width="1.5"></path><path d="M793.04 499.77L793.04 499.77" stroke="#132e65" stroke-width="1.5"></path><path d="M793.04 499.77L861.13 648.53" stroke="#132e65" stroke-width="1.5"></path><path d="M861.13 648.53L861.13 648.53" stroke="#132e65" stroke-width="1.5"></path><path d="M861.13 648.53L979.91 517.37" stroke="#132e65" stroke-width="1.5"></path><path d="M1008.29 -46.18L1008.29 -46.18" stroke="#132e65" stroke-width="1.5"></path><path d="M1008.29 -46.18L969.8 107.1" stroke="#132e65" stroke-width="1.5"></path><path d="M1008.29 -46.18L1158.88 -107.96" stroke="#132e65" stroke-width="1.5"></path><path d="M1008.29 -46.18L1109.49 103.7" stroke="#132e65" stroke-width="1.5"></path><path d="M1008.29 -46.18L974.69 207.68" stroke="#132e65" stroke-width="1.5"></path><path d="M1008.29 -46.18L1249.14 76.57" stroke="#132e65" stroke-width="1.5"></path><path d="M1008.29 -46.18L1151.27 195.37" stroke="#132e65" stroke-width="1.5"></path><path d="M969.8 107.1L969.8 107.1" stroke="#132e65" stroke-width="1.5"></path><path d="M969.8 107.1L974.69 207.68" stroke="#132e65" stroke-width="1.5"></path><path d="M969.8 107.1L1109.49 103.7" stroke="#132e65" stroke-width="1.5"></path><path d="M974.69 207.68L974.69 207.68" stroke="#132e65" stroke-width="1.5"></path><path d="M974.69 207.68L975.12 361.47" stroke="#132e65" stroke-width="1.5"></path><path d="M974.69 207.68L1109.49 103.7" stroke="#132e65" stroke-width="1.5"></path><path d="M975.12 361.47L975.12 361.47" stroke="#132e65" stroke-width="1.5"></path><path d="M975.12 361.47L1117.67 389.86" stroke="#132e65" stroke-width="1.5"></path><path d="M975.12 361.47L979.91 517.37" stroke="#132e65" stroke-width="1.5"></path><path d="M979.91 517.37L979.91 517.37" stroke="#132e65" stroke-width="1.5"></path><path d="M979.91 517.37L1148.51 550.94" stroke="#132e65" stroke-width="1.5"></path><path d="M1158.88 -107.96L1158.88 -107.96" stroke="#132e65" stroke-width="1.5"></path><path d="M1158.88 -107.96L1299.61 -74.31" stroke="#132e65" stroke-width="1.5"></path><path d="M1109.49 103.7L1109.49 103.7" stroke="#132e65" stroke-width="1.5"></path><path d="M1109.49 103.7L1151.27 195.37" stroke="#132e65" stroke-width="1.5"></path><path d="M1151.27 195.37L1151.27 195.37" stroke="#132e65" stroke-width="1.5"></path><path d="M1151.27 195.37L1266.55 210.16" stroke="#132e65" stroke-width="1.5"></path><path d="M1151.27 195.37L1249.14 76.57" stroke="#132e65" stroke-width="1.5"></path><path d="M1117.67 389.86L1117.67 389.86" stroke="#132e65" stroke-width="1.5"></path><path d="M1117.67 389.86L1148.51 550.94" stroke="#132e65" stroke-width="1.5"></path><path d="M1117.67 389.86L1263.68 499.87" stroke="#132e65" stroke-width="1.5"></path><path d="M1117.67 389.86L1302.9 359.54" stroke="#132e65" stroke-width="1.5"></path><path d="M1148.51 550.94L1148.51 550.94" stroke="#132e65" stroke-width="1.5"></path><path d="M1148.51 550.94L1263.68 499.87" stroke="#132e65" stroke-width="1.5"></path><path d="M1148.51 550.94L1127.51 701.14" stroke="#132e65" stroke-width="1.5"></path><path d="M1127.51 701.14L1127.51 701.14" stroke="#132e65" stroke-width="1.5"></path><path d="M1127.51 701.14L1286.85 682.94" stroke="#132e65" stroke-width="1.5"></path><path d="M1127.51 701.14L979.91 517.37" stroke="#132e65" stroke-width="1.5"></path><path d="M1127.51 701.14L1263.68 499.87" stroke="#132e65" stroke-width="1.5"></path><path d="M1299.61 -74.31L1299.61 -74.31" stroke="#132e65" stroke-width="1.5"></path><path d="M1299.61 -74.31L1423.39 -105.6" stroke="#132e65" stroke-width="1.5"></path><path d="M1299.61 -74.31L1249.14 76.57" stroke="#132e65" stroke-width="1.5"></path><path d="M1299.61 -74.31L1436.63 75.26" stroke="#132e65" stroke-width="1.5"></path><path d="M1249.14 76.57L1249.14 76.57" stroke="#132e65" stroke-width="1.5"></path><path d="M1249.14 76.57L1266.55 210.16" stroke="#132e65" stroke-width="1.5"></path><path d="M1249.14 76.57L1109.49 103.7" stroke="#132e65" stroke-width="1.5"></path><path d="M1249.14 76.57L1436.63 75.26" stroke="#132e65" stroke-width="1.5"></path><path d="M1266.55 210.16L1266.55 210.16" stroke="#132e65" stroke-width="1.5"></path><path d="M1266.55 210.16L1302.9 359.54" stroke="#132e65" stroke-width="1.5"></path><path d="M1266.55 210.16L1435.03 254.8" stroke="#132e65" stroke-width="1.5"></path><path d="M1302.9 359.54L1302.9 359.54" stroke="#132e65" stroke-width="1.5"></path><path d="M1302.9 359.54L1430.39 391.97" stroke="#132e65" stroke-width="1.5"></path><path d="M1302.9 359.54L1263.68 499.87" stroke="#132e65" stroke-width="1.5"></path><path d="M1302.9 359.54L1388.89 490.83" stroke="#132e65" stroke-width="1.5"></path><path d="M1302.9 359.54L1435.03 254.8" stroke="#132e65" stroke-width="1.5"></path><path d="M1263.68 499.87L1263.68 499.87" stroke="#132e65" stroke-width="1.5"></path><path d="M1263.68 499.87L1388.89 490.83" stroke="#132e65" stroke-width="1.5"></path><path d="M1263.68 499.87L1286.85 682.94" stroke="#132e65" stroke-width="1.5"></path><path d="M1286.85 682.94L1286.85 682.94" stroke="#132e65" stroke-width="1.5"></path><path d="M1286.85 682.94L1399.91 650.84" stroke="#132e65" stroke-width="1.5"></path><path d="M1286.85 682.94L1148.51 550.94" stroke="#132e65" stroke-width="1.5"></path><path d="M1286.85 682.94L1388.89 490.83" stroke="#132e65" stroke-width="1.5"></path><path d="M1423.39 -105.6L1423.39 -105.6" stroke="#132e65" stroke-width="1.5"></path><path d="M1423.39 -105.6L1550.65 -48.46" stroke="#132e65" stroke-width="1.5"></path><path d="M1423.39 -105.6L1436.63 75.26" stroke="#132e65" stroke-width="1.5"></path><path d="M1423.39 -105.6L1249.14 76.57" stroke="#132e65" stroke-width="1.5"></path><path d="M1423.39 -105.6L1158.88 -107.96" stroke="#132e65" stroke-width="1.5"></path><path d="M1436.63 75.26L1436.63 75.26" stroke="#132e65" stroke-width="1.5"></path><path d="M1436.63 75.26L1550.65 -48.46" stroke="#132e65" stroke-width="1.5"></path><path d="M1436.63 75.26L1610.46 93.56" stroke="#132e65" stroke-width="1.5"></path><path d="M1436.63 75.26L1435.03 254.8" stroke="#132e65" stroke-width="1.5"></path><path d="M1436.63 75.26L1553.56 225.79" stroke="#132e65" stroke-width="1.5"></path><path d="M1435.03 254.8L1435.03 254.8" stroke="#132e65" stroke-width="1.5"></path><path d="M1435.03 254.8L1553.56 225.79" stroke="#132e65" stroke-width="1.5"></path><path d="M1435.03 254.8L1430.39 391.97" stroke="#132e65" stroke-width="1.5"></path><path d="M1435.03 254.8L1546.64 340.9" stroke="#132e65" stroke-width="1.5"></path><path d="M1430.39 391.97L1430.39 391.97" stroke="#132e65" stroke-width="1.5"></path><path d="M1430.39 391.97L1388.89 490.83" stroke="#132e65" stroke-width="1.5"></path><path d="M1430.39 391.97L1546.64 340.9" stroke="#132e65" stroke-width="1.5"></path><path d="M1430.39 391.97L1263.68 499.87" stroke="#132e65" stroke-width="1.5"></path><path d="M1430.39 391.97L1553.56 225.79" stroke="#132e65" stroke-width="1.5"></path><path d="M1388.89 490.83L1388.89 490.83" stroke="#132e65" stroke-width="1.5"></path><path d="M1388.89 490.83L1399.91 650.84" stroke="#132e65" stroke-width="1.5"></path><path d="M1388.89 490.83L1546.64 340.9" stroke="#132e65" stroke-width="1.5"></path><path d="M1399.91 650.84L1399.91 650.84" stroke="#132e65" stroke-width="1.5"></path><path d="M1399.91 650.84L1582.39 674.61" stroke="#132e65" stroke-width="1.5"></path><path d="M1550.65 -48.46L1550.65 -48.46" stroke="#132e65" stroke-width="1.5"></path><path d="M1550.65 -48.46L1610.46 93.56" stroke="#132e65" stroke-width="1.5"></path><path d="M1610.46 93.56L1610.46 93.56" stroke="#132e65" stroke-width="1.5"></path><path d="M1610.46 93.56L1553.56 225.79" stroke="#132e65" stroke-width="1.5"></path><path d="M1553.56 225.79L1553.56 225.79" stroke="#132e65" stroke-width="1.5"></path><path d="M1553.56 225.79L1546.64 340.9" stroke="#132e65" stroke-width="1.5"></path><path d="M1546.64 340.9L1546.64 340.9" stroke="#132e65" stroke-width="1.5"></path><path d="M1546.64 340.9L1606.65 550.9" stroke="#132e65" stroke-width="1.5"></path><path d="M1546.64 340.9L1302.9 359.54" stroke="#132e65" stroke-width="1.5"></path><path d="M1606.65 550.9L1606.65 550.9" stroke="#132e65" stroke-width="1.5"></path><path d="M1606.65 550.9L1582.39 674.61" stroke="#132e65" stroke-width="1.5"></path><path d="M1606.65 550.9L1388.89 490.83" stroke="#132e65" stroke-width="1.5"></path><path d="M1606.65 550.9L1399.91 650.84" stroke="#132e65" stroke-width="1.5"></path><path d="M1606.65 550.9L1430.39 391.97" stroke="#132e65" stroke-width="1.5"></path><path d="M1606.65 550.9L1553.56 225.79" stroke="#132e65" stroke-width="1.5"></path><path d="M1582.39 674.61L1582.39 674.61" stroke="#132e65" stroke-width="1.5"></path><path d="M1582.39 674.61L1388.89 490.83" stroke="#132e65" stroke-width="1.5"></path><path d="M1582.39 674.61L1286.85 682.94" stroke="#132e65" stroke-width="1.5"></path><path d="M1582.39 674.61L1430.39 391.97" stroke="#132e65" stroke-width="1.5"></path><path d="M1582.39 674.61L1546.64 340.9" stroke="#132e65" stroke-width="1.5"></path><circle r="5" cx="-79.06" cy="340.52" fill="#132e65"></circle><circle r="5" cx="-88.97" cy="533.03" fill="#132e65"></circle><circle r="5" cx="-54.57" cy="675.59" fill="#132e65"></circle><circle r="5" cx="66.72" cy="395.61" fill="#132e65"></circle><circle r="5" cx="42.68" cy="554.16" fill="#132e65"></circle><circle r="5" cx="91.92" cy="676.67" fill="#132e65"></circle><circle r="5" cx="236.85" cy="345.09" fill="#132e65"></circle><circle r="5" cx="227.54" cy="514.22" fill="#132e65"></circle><circle r="5" cx="231.15" cy="695.46" fill="#132e65"></circle><circle r="5" cx="349.3" cy="373.19" fill="#132e65"></circle><circle r="5" cx="401.1" cy="490.73" fill="#132e65"></circle><circle r="5" cx="358.05" cy="696.64" fill="#132e65"></circle><circle r="5" cx="526.91" cy="355.94" fill="#132e65"></circle><circle r="5" cx="558.01" cy="534.5" fill="#132e65"></circle><circle r="5" cx="493.6" cy="643.28" fill="#132e65"></circle><circle r="5" cx="654.95" cy="343.43" fill="#132e65"></circle><circle r="5" cx="686.32" cy="514.52" fill="#132e65"></circle><circle r="5" cx="667.99" cy="708.52" fill="#132e65"></circle><circle r="5" cx="852.31" cy="258.03" fill="#132e65"></circle><circle r="5" cx="793.04" cy="499.77" fill="#132e65"></circle><circle r="5" cx="861.13" cy="648.53" fill="#132e65"></circle><circle r="5" cx="1008.29" cy="-46.18" fill="#132e65"></circle><circle r="5" cx="969.8" cy="107.1" fill="#132e65"></circle><circle r="5" cx="974.69" cy="207.68" fill="#132e65"></circle><circle r="5" cx="975.12" cy="361.47" fill="#132e65"></circle><circle r="5" cx="979.91" cy="517.37" fill="#132e65"></circle><circle r="5" cx="1158.88" cy="-107.96" fill="#132e65"></circle><circle r="5" cx="1109.49" cy="103.7" fill="#132e65"></circle><circle r="5" cx="1151.27" cy="195.37" fill="#132e65"></circle><circle r="5" cx="1117.67" cy="389.86" fill="#132e65"></circle><circle r="5" cx="1148.51" cy="550.94" fill="#132e65"></circle><circle r="5" cx="1127.51" cy="701.14" fill="#132e65"></circle><circle r="5" cx="1299.61" cy="-74.31" fill="#132e65"></circle><circle r="5" cx="1249.14" cy="76.57" fill="#132e65"></circle><circle r="5" cx="1266.55" cy="210.16" fill="#132e65"></circle><circle r="5" cx="1302.9" cy="359.54" fill="#132e65"></circle><circle r="5" cx="1263.68" cy="499.87" fill="#132e65"></circle><circle r="5" cx="1286.85" cy="682.94" fill="#132e65"></circle><circle r="5" cx="1423.39" cy="-105.6" fill="#132e65"></circle><circle r="5" cx="1436.63" cy="75.26" fill="#132e65"></circle><circle r="5" cx="1435.03" cy="254.8" fill="#132e65"></circle><circle r="5" cx="1430.39" cy="391.97" fill="#132e65"></circle><circle r="5" cx="1388.89" cy="490.83" fill="#132e65"></circle><circle r="5" cx="1399.91" cy="650.84" fill="#132e65"></circle><circle r="5" cx="1550.65" cy="-48.46" fill="#132e65"></circle><circle r="5" cx="1610.46" cy="93.56" fill="#132e65"></circle><circle r="5" cx="1553.56" cy="225.79" fill="#132e65"></circle><circle r="5" cx="1546.64" cy="340.9" fill="#132e65"></circle><circle r="5" cx="1606.65" cy="550.9" fill="#132e65"></circle><circle r="5" cx="1582.39" cy="674.61" fill="#132e65"></circle><path d="M962.18 406.03L962.18 406.03" stroke="hsl(228.5, 77.2%, 51.5%)" stroke-width="1.5"></path><path d="M962.18 406.03L975.06 518.37" stroke="hsl(228.5, 77.2%, 51.5%)" stroke-width="1.5"></path><path d="M962.18 406.03L1105.28 399.07" stroke="hsl(228.5, 77.2%, 51.5%)" stroke-width="1.5"></path><path d="M962.18 406.03L846.33 495.25" stroke="hsl(228.5, 77.2%, 51.5%)" stroke-width="1.5"></path><path d="M962.18 406.03L788.89 358.51" stroke="hsl(228.5, 77.2%, 51.5%)" stroke-width="1.5"></path><path d="M1280.43 -55.78L1280.43 -55.78" stroke="hsl(228.5, 77.2%, 51.5%)" stroke-width="1.5"></path><path d="M1280.43 -55.78L1398.9 -45.49" stroke="hsl(228.5, 77.2%, 51.5%)" stroke-width="1.5"></path><path d="M1280.43 -55.78L1310.68 91.89" stroke="hsl(228.5, 77.2%, 51.5%)" stroke-width="1.5"></path><path d="M1280.43 -55.78L1144.1 75.73" stroke="hsl(228.5, 77.2%, 51.5%)" stroke-width="1.5"></path><path d="M1280.43 -55.78L1412.04 104.9" stroke="hsl(228.5, 77.2%, 51.5%)" stroke-width="1.5"></path><path d="M1280.43 -55.78L1569.65 -88.48" stroke="hsl(228.5, 77.2%, 51.5%)" stroke-width="1.5"></path><path d="M1280.43 -55.78L1258.65 236.56" stroke="hsl(228.5, 77.2%, 51.5%)" stroke-width="1.5"></path><path d="M1276.98 706.25L1276.98 706.25" stroke="hsl(228.5, 77.2%, 51.5%)" stroke-width="1.5"></path><path d="M1276.98 706.25L1310.15 546.87" stroke="hsl(228.5, 77.2%, 51.5%)" stroke-width="1.5"></path><path d="M1276.98 706.25L1450.53 686.4" stroke="hsl(228.5, 77.2%, 51.5%)" stroke-width="1.5"></path><path d="M1448.16 358.16L1448.16 358.16" stroke="hsl(228.5, 77.2%, 51.5%)" stroke-width="1.5"></path><path d="M1448.16 358.16L1584.41 403.16" stroke="hsl(228.5, 77.2%, 51.5%)" stroke-width="1.5"></path><path d="M1448.16 358.16L1445.85 198.3" stroke="hsl(228.5, 77.2%, 51.5%)" stroke-width="1.5"></path><path d="M1448.16 358.16L1545.15 509.77" stroke="hsl(228.5, 77.2%, 51.5%)" stroke-width="1.5"></path><path d="M1448.16 358.16L1451.3 545.74" stroke="hsl(228.5, 77.2%, 51.5%)" stroke-width="1.5"></path><path d="M1450.53 686.4L1450.53 686.4" stroke="hsl(228.5, 77.2%, 51.5%)" stroke-width="1.5"></path><path d="M1450.53 686.4L1451.3 545.74" stroke="hsl(228.5, 77.2%, 51.5%)" stroke-width="1.5"></path><path d="M1450.53 686.4L1601.71 695.79" stroke="hsl(228.5, 77.2%, 51.5%)" stroke-width="1.5"></path><path d="M1450.53 686.4L1310.15 546.87" stroke="hsl(228.5, 77.2%, 51.5%)" stroke-width="1.5"></path><path d="M1450.53 686.4L1545.15 509.77" stroke="hsl(228.5, 77.2%, 51.5%)" stroke-width="1.5"></path><path d="M1601.71 695.79L1601.71 695.79" stroke="hsl(228.5, 77.2%, 51.5%)" stroke-width="1.5"></path><path d="M1601.71 695.79L1545.15 509.77" stroke="hsl(228.5, 77.2%, 51.5%)" stroke-width="1.5"></path><path d="M-100.26 494.36L-100.26 494.36" stroke="hsl(228.5, 77.2%, 51.5%)" stroke-width="1.5"></path><path d="M-100.26 494.36L-65.62 640.41" stroke="hsl(228.5, 77.2%, 51.5%)" stroke-width="1.5"></path><path d="M-100.26 494.36L90.48 541.86" stroke="hsl(228.5, 77.2%, 51.5%)" stroke-width="1.5"></path><path d="M-65.62 640.41L-65.62 640.41" stroke="hsl(228.5, 77.2%, 51.5%)" stroke-width="1.5"></path><path d="M-65.62 640.41L93.36 681.71" stroke="hsl(228.5, 77.2%, 51.5%)" stroke-width="1.5"></path><path d="M-65.62 640.41L90.48 541.86" stroke="hsl(228.5, 77.2%, 51.5%)" stroke-width="1.5"></path><path d="M-65.62 640.41L216.6 687.49" stroke="hsl(228.5, 77.2%, 51.5%)" stroke-width="1.5"></path><path d="M-65.62 640.41L226.78 559.47" stroke="hsl(228.5, 77.2%, 51.5%)" stroke-width="1.5"></path><path d="M90.48 541.86L90.48 541.86" stroke="hsl(228.5, 77.2%, 51.5%)" stroke-width="1.5"></path><path d="M90.48 541.86L226.78 559.47" stroke="hsl(228.5, 77.2%, 51.5%)" stroke-width="1.5"></path><path d="M90.48 541.86L93.36 681.71" stroke="hsl(228.5, 77.2%, 51.5%)" stroke-width="1.5"></path><path d="M90.48 541.86L216.6 687.49" stroke="hsl(228.5, 77.2%, 51.5%)" stroke-width="1.5"></path><path d="M93.36 681.71L93.36 681.71" stroke="hsl(228.5, 77.2%, 51.5%)" stroke-width="1.5"></path><path d="M93.36 681.71L216.6 687.49" stroke="hsl(228.5, 77.2%, 51.5%)" stroke-width="1.5"></path><path d="M93.36 681.71L226.78 559.47" stroke="hsl(228.5, 77.2%, 51.5%)" stroke-width="1.5"></path><path d="M93.36 681.71L-100.26 494.36" stroke="hsl(228.5, 77.2%, 51.5%)" stroke-width="1.5"></path><path d="M93.36 681.71L382.38 669.84" stroke="hsl(228.5, 77.2%, 51.5%)" stroke-width="1.5"></path><path d="M226.78 559.47L226.78 559.47" stroke="hsl(228.5, 77.2%, 51.5%)" stroke-width="1.5"></path><path d="M226.78 559.47L216.6 687.49" stroke="hsl(228.5, 77.2%, 51.5%)" stroke-width="1.5"></path><path d="M226.78 559.47L398.55 494.87" stroke="hsl(228.5, 77.2%, 51.5%)" stroke-width="1.5"></path><path d="M226.78 559.47L382.38 669.84" stroke="hsl(228.5, 77.2%, 51.5%)" stroke-width="1.5"></path><path d="M216.6 687.49L216.6 687.49" stroke="hsl(228.5, 77.2%, 51.5%)" stroke-width="1.5"></path><path d="M216.6 687.49L382.38 669.84" stroke="hsl(228.5, 77.2%, 51.5%)" stroke-width="1.5"></path><path d="M398.55 494.87L398.55 494.87" stroke="hsl(228.5, 77.2%, 51.5%)" stroke-width="1.5"></path><path d="M398.55 494.87L529.38 526.13" stroke="hsl(228.5, 77.2%, 51.5%)" stroke-width="1.5"></path><path d="M398.55 494.87L511.57 411.29" stroke="hsl(228.5, 77.2%, 51.5%)" stroke-width="1.5"></path><path d="M398.55 494.87L382.38 669.84" stroke="hsl(228.5, 77.2%, 51.5%)" stroke-width="1.5"></path><path d="M398.55 494.87L516.81 709.49" stroke="hsl(228.5, 77.2%, 51.5%)" stroke-width="1.5"></path><path d="M398.55 494.87L216.6 687.49" stroke="hsl(228.5, 77.2%, 51.5%)" stroke-width="1.5"></path><path d="M382.38 669.84L382.38 669.84" stroke="hsl(228.5, 77.2%, 51.5%)" stroke-width="1.5"></path><path d="M382.38 669.84L516.81 709.49" stroke="hsl(228.5, 77.2%, 51.5%)" stroke-width="1.5"></path><path d="M511.57 411.29L511.57 411.29" stroke="hsl(228.5, 77.2%, 51.5%)" stroke-width="1.5"></path><path d="M511.57 411.29L529.38 526.13" stroke="hsl(228.5, 77.2%, 51.5%)" stroke-width="1.5"></path><path d="M511.57 411.29L691.43 487.62" stroke="hsl(228.5, 77.2%, 51.5%)" stroke-width="1.5"></path><path d="M511.57 411.29L788.89 358.51" stroke="hsl(228.5, 77.2%, 51.5%)" stroke-width="1.5"></path><path d="M511.57 411.29L382.38 669.84" stroke="hsl(228.5, 77.2%, 51.5%)" stroke-width="1.5"></path><path d="M511.57 411.29L516.81 709.49" stroke="hsl(228.5, 77.2%, 51.5%)" stroke-width="1.5"></path><path d="M529.38 526.13L529.38 526.13" stroke="hsl(228.5, 77.2%, 51.5%)" stroke-width="1.5"></path><path d="M516.81 709.49L516.81 709.49" stroke="hsl(228.5, 77.2%, 51.5%)" stroke-width="1.5"></path><path d="M516.81 709.49L657.11 711.04" stroke="hsl(228.5, 77.2%, 51.5%)" stroke-width="1.5"></path><path d="M691.43 487.62L691.43 487.62" stroke="hsl(228.5, 77.2%, 51.5%)" stroke-width="1.5"></path><path d="M691.43 487.62L846.33 495.25" stroke="hsl(228.5, 77.2%, 51.5%)" stroke-width="1.5"></path><path d="M691.43 487.62L788.89 358.51" stroke="hsl(228.5, 77.2%, 51.5%)" stroke-width="1.5"></path><path d="M691.43 487.62L529.38 526.13" stroke="hsl(228.5, 77.2%, 51.5%)" stroke-width="1.5"></path><path d="M691.43 487.62L657.11 711.04" stroke="hsl(228.5, 77.2%, 51.5%)" stroke-width="1.5"></path><path d="M657.11 711.04L657.11 711.04" stroke="hsl(228.5, 77.2%, 51.5%)" stroke-width="1.5"></path><path d="M657.11 711.04L847.63 681.31" stroke="hsl(228.5, 77.2%, 51.5%)" stroke-width="1.5"></path><path d="M657.11 711.04L529.38 526.13" stroke="hsl(228.5, 77.2%, 51.5%)" stroke-width="1.5"></path><path d="M788.89 358.51L788.89 358.51" stroke="hsl(228.5, 77.2%, 51.5%)" stroke-width="1.5"></path><path d="M788.89 358.51L846.33 495.25" stroke="hsl(228.5, 77.2%, 51.5%)" stroke-width="1.5"></path><path d="M846.33 495.25L846.33 495.25" stroke="hsl(228.5, 77.2%, 51.5%)" stroke-width="1.5"></path><path d="M846.33 495.25L975.06 518.37" stroke="hsl(228.5, 77.2%, 51.5%)" stroke-width="1.5"></path><path d="M846.33 495.25L847.63 681.31" stroke="hsl(228.5, 77.2%, 51.5%)" stroke-width="1.5"></path><path d="M846.33 495.25L966.37 643.72" stroke="hsl(228.5, 77.2%, 51.5%)" stroke-width="1.5"></path><path d="M847.63 681.31L847.63 681.31" stroke="hsl(228.5, 77.2%, 51.5%)" stroke-width="1.5"></path><path d="M847.63 681.31L966.37 643.72" stroke="hsl(228.5, 77.2%, 51.5%)" stroke-width="1.5"></path><path d="M847.63 681.31L975.06 518.37" stroke="hsl(228.5, 77.2%, 51.5%)" stroke-width="1.5"></path><path d="M847.63 681.31L691.43 487.62" stroke="hsl(228.5, 77.2%, 51.5%)" stroke-width="1.5"></path><path d="M975.06 518.37L975.06 518.37" stroke="hsl(228.5, 77.2%, 51.5%)" stroke-width="1.5"></path><path d="M975.06 518.37L966.37 643.72" stroke="hsl(228.5, 77.2%, 51.5%)" stroke-width="1.5"></path><path d="M975.06 518.37L1096.86 640.05" stroke="hsl(228.5, 77.2%, 51.5%)" stroke-width="1.5"></path><path d="M975.06 518.37L1105.28 399.07" stroke="hsl(228.5, 77.2%, 51.5%)" stroke-width="1.5"></path><path d="M966.37 643.72L966.37 643.72" stroke="hsl(228.5, 77.2%, 51.5%)" stroke-width="1.5"></path><path d="M1144.1 75.73L1144.1 75.73" stroke="hsl(228.5, 77.2%, 51.5%)" stroke-width="1.5"></path><path d="M1144.1 75.73L1310.68 91.89" stroke="hsl(228.5, 77.2%, 51.5%)" stroke-width="1.5"></path><path d="M1144.1 75.73L1106.91 256.17" stroke="hsl(228.5, 77.2%, 51.5%)" stroke-width="1.5"></path><path d="M1106.91 256.17L1106.91 256.17" stroke="hsl(228.5, 77.2%, 51.5%)" stroke-width="1.5"></path><path d="M1106.91 256.17L1105.28 399.07" stroke="hsl(228.5, 77.2%, 51.5%)" stroke-width="1.5"></path><path d="M1106.91 256.17L1258.65 236.56" stroke="hsl(228.5, 77.2%, 51.5%)" stroke-width="1.5"></path><path d="M1106.91 256.17L1259.15 380.34" stroke="hsl(228.5, 77.2%, 51.5%)" stroke-width="1.5"></path><path d="M1106.91 256.17L962.18 406.03" stroke="hsl(228.5, 77.2%, 51.5%)" stroke-width="1.5"></path><path d="M1106.91 256.17L1310.68 91.89" stroke="hsl(228.5, 77.2%, 51.5%)" stroke-width="1.5"></path><path d="M1105.28 399.07L1105.28 399.07" stroke="hsl(228.5, 77.2%, 51.5%)" stroke-width="1.5"></path><path d="M1096.86 640.05L1096.86 640.05" stroke="hsl(228.5, 77.2%, 51.5%)" stroke-width="1.5"></path><path d="M1096.86 640.05L966.37 643.72" stroke="hsl(228.5, 77.2%, 51.5%)" stroke-width="1.5"></path><path d="M1096.86 640.05L1276.98 706.25" stroke="hsl(228.5, 77.2%, 51.5%)" stroke-width="1.5"></path><path d="M1096.86 640.05L1310.15 546.87" stroke="hsl(228.5, 77.2%, 51.5%)" stroke-width="1.5"></path><path d="M1096.86 640.05L1105.28 399.07" stroke="hsl(228.5, 77.2%, 51.5%)" stroke-width="1.5"></path><path d="M1310.68 91.89L1310.68 91.89" stroke="hsl(228.5, 77.2%, 51.5%)" stroke-width="1.5"></path><path d="M1310.68 91.89L1412.04 104.9" stroke="hsl(228.5, 77.2%, 51.5%)" stroke-width="1.5"></path><path d="M1310.68 91.89L1258.65 236.56" stroke="hsl(228.5, 77.2%, 51.5%)" stroke-width="1.5"></path><path d="M1258.65 236.56L1258.65 236.56" stroke="hsl(228.5, 77.2%, 51.5%)" stroke-width="1.5"></path><path d="M1258.65 236.56L1259.15 380.34" stroke="hsl(228.5, 77.2%, 51.5%)" stroke-width="1.5"></path><path d="M1258.65 236.56L1445.85 198.3" stroke="hsl(228.5, 77.2%, 51.5%)" stroke-width="1.5"></path><path d="M1258.65 236.56L1144.1 75.73" stroke="hsl(228.5, 77.2%, 51.5%)" stroke-width="1.5"></path><path d="M1258.65 236.56L1412.04 104.9" stroke="hsl(228.5, 77.2%, 51.5%)" stroke-width="1.5"></path><path d="M1259.15 380.34L1259.15 380.34" stroke="hsl(228.5, 77.2%, 51.5%)" stroke-width="1.5"></path><path d="M1259.15 380.34L1105.28 399.07" stroke="hsl(228.5, 77.2%, 51.5%)" stroke-width="1.5"></path><path d="M1310.15 546.87L1310.15 546.87" stroke="hsl(228.5, 77.2%, 51.5%)" stroke-width="1.5"></path><path d="M1310.15 546.87L1451.3 545.74" stroke="hsl(228.5, 77.2%, 51.5%)" stroke-width="1.5"></path><path d="M1310.15 546.87L1259.15 380.34" stroke="hsl(228.5, 77.2%, 51.5%)" stroke-width="1.5"></path><path d="M1398.9 -45.49L1398.9 -45.49" stroke="hsl(228.5, 77.2%, 51.5%)" stroke-width="1.5"></path><path d="M1398.9 -45.49L1412.04 104.9" stroke="hsl(228.5, 77.2%, 51.5%)" stroke-width="1.5"></path><path d="M1412.04 104.9L1412.04 104.9" stroke="hsl(228.5, 77.2%, 51.5%)" stroke-width="1.5"></path><path d="M1412.04 104.9L1445.85 198.3" stroke="hsl(228.5, 77.2%, 51.5%)" stroke-width="1.5"></path><path d="M1445.85 198.3L1445.85 198.3" stroke="hsl(228.5, 77.2%, 51.5%)" stroke-width="1.5"></path><path d="M1445.85 198.3L1598.01 210.15" stroke="hsl(228.5, 77.2%, 51.5%)" stroke-width="1.5"></path><path d="M1445.85 198.3L1310.68 91.89" stroke="hsl(228.5, 77.2%, 51.5%)" stroke-width="1.5"></path><path d="M1445.85 198.3L1587.45 75.24" stroke="hsl(228.5, 77.2%, 51.5%)" stroke-width="1.5"></path><path d="M1451.3 545.74L1451.3 545.74" stroke="hsl(228.5, 77.2%, 51.5%)" stroke-width="1.5"></path><path d="M1451.3 545.74L1545.15 509.77" stroke="hsl(228.5, 77.2%, 51.5%)" stroke-width="1.5"></path><path d="M1451.3 545.74L1584.41 403.16" stroke="hsl(228.5, 77.2%, 51.5%)" stroke-width="1.5"></path><path d="M1569.65 -88.48L1569.65 -88.48" stroke="hsl(228.5, 77.2%, 51.5%)" stroke-width="1.5"></path><path d="M1569.65 -88.48L1587.45 75.24" stroke="hsl(228.5, 77.2%, 51.5%)" stroke-width="1.5"></path><path d="M1569.65 -88.48L1398.9 -45.49" stroke="hsl(228.5, 77.2%, 51.5%)" stroke-width="1.5"></path><path d="M1569.65 -88.48L1412.04 104.9" stroke="hsl(228.5, 77.2%, 51.5%)" stroke-width="1.5"></path><path d="M1569.65 -88.48L1598.01 210.15" stroke="hsl(228.5, 77.2%, 51.5%)" stroke-width="1.5"></path><path d="M1569.65 -88.48L1445.85 198.3" stroke="hsl(228.5, 77.2%, 51.5%)" stroke-width="1.5"></path><path d="M1587.45 75.24L1587.45 75.24" stroke="hsl(228.5, 77.2%, 51.5%)" stroke-width="1.5"></path><path d="M1587.45 75.24L1598.01 210.15" stroke="hsl(228.5, 77.2%, 51.5%)" stroke-width="1.5"></path><path d="M1598.01 210.15L1598.01 210.15" stroke="hsl(228.5, 77.2%, 51.5%)" stroke-width="1.5"></path><path d="M1598.01 210.15L1584.41 403.16" stroke="hsl(228.5, 77.2%, 51.5%)" stroke-width="1.5"></path><path d="M1598.01 210.15L1448.16 358.16" stroke="hsl(228.5, 77.2%, 51.5%)" stroke-width="1.5"></path><path d="M1584.41 403.16L1584.41 403.16" stroke="hsl(228.5, 77.2%, 51.5%)" stroke-width="1.5"></path><path d="M1584.41 403.16L1545.15 509.77" stroke="hsl(228.5, 77.2%, 51.5%)" stroke-width="1.5"></path><path d="M1584.41 403.16L1445.85 198.3" stroke="hsl(228.5, 77.2%, 51.5%)" stroke-width="1.5"></path><path d="M1545.15 509.77L1545.15 509.77" stroke="hsl(228.5, 77.2%, 51.5%)" stroke-width="1.5"></path><path d="M1545.15 509.77L1310.15 546.87" stroke="hsl(228.5, 77.2%, 51.5%)" stroke-width="1.5"></path><circle r="25" cx="962.18" cy="406.03" fill="url(&quot;#SvgjsRadialGradient1598&quot;)"></circle><circle r="25" cx="1280.43" cy="-55.78" fill="url(&quot;#SvgjsRadialGradient1598&quot;)"></circle><circle r="25" cx="1276.98" cy="706.25" fill="url(&quot;#SvgjsRadialGradient1598&quot;)"></circle><circle r="25" cx="1448.16" cy="358.16" fill="url(&quot;#SvgjsRadialGradient1598&quot;)"></circle><circle r="25" cx="1450.53" cy="686.4" fill="url(&quot;#SvgjsRadialGradient1598&quot;)"></circle><circle r="25" cx="1601.71" cy="695.79" fill="url(&quot;#SvgjsRadialGradient1598&quot;)"></circle><circle r="5" cx="-100.26" cy="494.36" fill="#8b9ad9"></circle><circle r="5" cx="-65.62" cy="640.41" fill="#8b9ad9"></circle><circle r="5" cx="90.48" cy="541.86" fill="#8b9ad9"></circle><circle r="5" cx="93.36" cy="681.71" fill="#8b9ad9"></circle><circle r="5" cx="226.78" cy="559.47" fill="#8b9ad9"></circle><circle r="5" cx="216.6" cy="687.49" fill="#8b9ad9"></circle><circle r="5" cx="398.55" cy="494.87" fill="#8b9ad9"></circle><circle r="5" cx="382.38" cy="669.84" fill="#8b9ad9"></circle><circle r="5" cx="511.57" cy="411.29" fill="#8b9ad9"></circle><circle r="5" cx="529.38" cy="526.13" fill="#8b9ad9"></circle><circle r="5" cx="516.81" cy="709.49" fill="#8b9ad9"></circle><circle r="5" cx="691.43" cy="487.62" fill="#8b9ad9"></circle><circle r="5" cx="657.11" cy="711.04" fill="#8b9ad9"></circle><circle r="5" cx="788.89" cy="358.51" fill="#8b9ad9"></circle><circle r="5" cx="846.33" cy="495.25" fill="#8b9ad9"></circle><circle r="5" cx="847.63" cy="681.31" fill="#8b9ad9"></circle><circle r="5" cx="975.06" cy="518.37" fill="#8b9ad9"></circle><circle r="5" cx="966.37" cy="643.72" fill="#8b9ad9"></circle><circle r="5" cx="1144.1" cy="75.73" fill="#8b9ad9"></circle><circle r="5" cx="1106.91" cy="256.17" fill="#8b9ad9"></circle><circle r="5" cx="1105.28" cy="399.07" fill="#8b9ad9"></circle><circle r="5" cx="1096.86" cy="640.05" fill="#8b9ad9"></circle><circle r="5" cx="1310.68" cy="91.89" fill="#8b9ad9"></circle><circle r="5" cx="1258.65" cy="236.56" fill="#8b9ad9"></circle><circle r="5" cx="1259.15" cy="380.34" fill="#8b9ad9"></circle><circle r="5" cx="1310.15" cy="546.87" fill="#8b9ad9"></circle><circle r="5" cx="1398.9" cy="-45.49" fill="#8b9ad9"></circle><circle r="5" cx="1412.04" cy="104.9" fill="#8b9ad9"></circle><circle r="5" cx="1445.85" cy="198.3" fill="#8b9ad9"></circle><circle r="5" cx="1451.3" cy="545.74" fill="#8b9ad9"></circle><circle r="5" cx="1569.65" cy="-88.48" fill="#8b9ad9"></circle><circle r="5" cx="1587.45" cy="75.24" fill="#8b9ad9"></circle><circle r="5" cx="1598.01" cy="210.15" fill="#8b9ad9"></circle><circle r="5" cx="1584.41" cy="403.16" fill="#8b9ad9"></circle><circle r="5" cx="1545.15" cy="509.77" fill="#8b9ad9"></circle></g><defs><mask id="SvgjsMask1596"><rect width="1440" height="560" fill="#ffffff"></rect></mask><linearGradient x1="100%" y1="50%" x2="0%" y2="50%" gradientUnits="userSpaceOnUse" id="SvgjsLinearGradient1597"><stop stop-color="#0e2a47" offset="0"></stop><stop stop-color="rgba(94, 106, 121, 1)" offset="1"></stop></linearGradient><radialGradient id="SvgjsRadialGradient1598"><stop stop-color="#ffffff" offset="0.1"></stop><stop stop-color="#1735b3" offset="0.2"></stop><stop stop-color="rgba(23, 53, 179, 0)" offset="1"></stop></radialGradient></defs></svg>